<?xml version="1.0" encoding="UTF-8" standalone="no"?>
<svg
   xmlns:dc="http://purl.org/dc/elements/1.1/"
   xmlns:cc="http://creativecommons.org/ns#"
   xmlns:rdf="http://www.w3.org/1999/02/22-rdf-syntax-ns#"
   xmlns:svg="http://www.w3.org/2000/svg"
   xmlns="http://www.w3.org/2000/svg"
   viewBox="0 0 317.5 1100"
   height="1100"
   width="317.5"
   version="1.1"
   id="svg2">
  <metadata
     id="metadata8">
    <rdf:RDF>
      <cc:Work
         rdf:about="">
        <dc:format>image/svg+xml</dc:format>
        <dc:type
           rdf:resource="http://purl.org/dc/dcmitype/StillImage" />
        <dc:title></dc:title>
      </cc:Work>
    </rdf:RDF>
  </metadata>
  <defs
     id="defs6" />
  <path
     id="path4138"
     d="m 150,1096.2365 c -1.71875,-0.543 -5.65646,-1.0434 -8.75046,-1.1119 -10.05674,-0.2227 -42.356292,-8.8617 -43.541202,-11.6456 -0.22917,-0.5385 -1.4948,-0.979 -2.8125,-0.979 -1.31771,0 -2.39584,-0.5625 -2.39584,-1.25 0,-0.6875 -0.73161,-1.25 -1.62579,-1.25 -2.29965,0 -8.35278,-2.9399 -8.36446,-4.0625 -0.005,-0.5156 -1.13475,-0.9375 -2.50975,-0.9375 -1.375,0 -2.5,-0.4674 -2.5,-1.0388 0,-0.5713 -1.53717,-1.8369 -3.41594,-2.8125 -1.87876,-0.9755 -5.05594,-3.3206 -7.06039,-5.2112 -2.00445,-1.8906 -4.15623,-3.4375 -4.78174,-3.4375 -1.48494,0 -27.24193,-25.757 -27.24193,-27.2419 0,-0.6255 -1.6875,-2.9031 -3.75,-5.0613 -2.0625,-2.1582 -3.75,-4.7729 -3.75,-5.8104 0,-1.0375 -0.49426,-1.8864 -1.09835,-1.8864 -0.60409,0 -1.79733,-1.6875 -2.65165,-3.75 -0.85431,-2.0625 -2.04756,-3.75 -2.65165,-3.75 -0.60409,0 -1.09835,-1.125 -1.09835,-2.5 0,-1.375 -0.42486,-2.5 -0.94414,-2.5 -0.51927,0 -1.64427,-1.9688 -2.5,-4.375 -0.85572,-2.4063 -2.256,-6.34375 -3.11172,-8.75 -0.85573,-2.40625 -1.98073,-4.375 -2.5,-4.375 -0.51928,0 -0.9523195,-1.26563 -0.9623295,-2.8125 -0.01,-1.54688 -0.94553,-5.34375 -2.07894,-8.4375 -3.37841,-9.22165 -4.47983,-19.47159 -4.43257,-41.25 0.0484,-22.31259 1.098,-35 2.89539,-35 0.62387,0 1.14184,-1.26563 1.15103,-2.8125 0.009,-1.54688 1.75341,-7.59375 3.8760195,-13.4375 2.12261,-5.84375 4.50273,-12.45313 5.28914,-14.6875 0.78642,-2.23438 1.85471,-4.0625 2.37398,-4.0625 0.51928,0 0.94414,-0.86727 0.94414,-1.92726 0,-1.06 1.125,-3.13482 2.5,-4.6107 1.375,-1.4759 2.5,-3.42113 2.5,-4.32274 0,-0.90161 0.5625,-1.6393 1.25,-1.6393 0.6875,0 1.25,-0.84887 1.25,-1.88638 0,-1.03751 1.6875,-3.65218 3.75,-5.8104 2.0625,-2.15819 3.75,-4.40962 3.75,-5.00315 0,-1.40914 25.89092,-27.30007 27.30007,-27.30007 0.59353,0 2.71915,-1.54688 4.7236,-3.4375 2.00445,-1.89063 5.18163,-4.23568 7.06039,-5.21123 1.87877,-0.97555 3.41594,-2.24117 3.41594,-2.8125 0,-0.57132 1.125,-1.03877 2.5,-1.03877 1.375,0 2.5,-0.5625 2.5,-1.25 0,-0.6875 1.125,-1.25 2.5,-1.25 1.375,0 2.5,-0.5625 2.5,-1.25 0,-0.6875 1.125,-1.25 2.5,-1.25 1.375,0 2.5,-0.5625 2.5,-1.25 0,-0.6875 1.125,-1.25 2.5,-1.25 1.375,0 2.5,-0.5625 2.5,-1.25 0,-0.6875 1.01749,-1.25 2.26109,-1.25 1.243602,0 3.257982,-0.72895 4.476402,-1.61987 1.91996,-1.40392 2.37716,-5.02863 3.42922,-27.1875 1.36998,-28.85507 2.92432,-57.81302 4.82773,-89.94263 1.29071,-21.78721 2.58746,-44.77891 5.00556,-88.75 2.34693,-42.67684 3.69208,-66.73259 4.96274,-88.75 2.46284,-42.67486 3.85235,-67.15516 5.07296,-89.375 2.92979,-53.3331 4.3013,-77.67246 7.50156,-133.125 0.69434,-12.03125 1.81864,-32 2.49844,-44.375 2.92979,-53.3331 4.3013,-77.67246 7.50156,-133.125 0.69434,-12.03125 1.80499,-31.71875 2.4681,-43.75 2.51709,-45.6687585 2.8399,-49.9999985 3.72659,-49.9999985 1.04899,0 2.15991,11.9889805 3.82229,41.2499985 0.64446,11.34375 1.73425,30.1875 2.42175,41.875 0.6875,11.6875 1.8125,30.8125 2.5,42.5 0.6875,11.6875 1.8233,31.09375 2.52401,43.125 0.70071,12.03125 1.83651,31.4375 2.52401,43.125 0.6875,11.6875 1.8125,30.8125 2.5,42.5 0.6875,11.6875 1.8125,30.8125 2.5,42.5 0.6875,11.6875 1.8017,30.53125 2.47599,41.875 0.67429,11.34375 1.78849,30.1875 2.47599,41.875 0.6875,11.6875 1.8125,30.8125 2.5,42.5 0.6875,11.6875 1.8125,30.8125 2.5,42.5 0.6875,11.6875 1.8179,30.95312 2.512,42.8125 1.6067,27.45181 3.42389,58.34389 5,85 1.63282,27.61511 3.44271,58.38895 5.01743,85.3125 0.70369,12.03125 1.83277,31.15625 2.50904,42.5 0.67628,11.34375 1.54806,28.78125 1.93731,38.75 0.88779,22.73709 1.3705,24.09121 9.36367,26.26781 3.40151,0.92626 6.18456,2.04325 6.18456,2.48219 0,0.43894 2.8125,1.56394 6.25,2.5 3.4375,0.93606 6.25,2.16274 6.25,2.72596 0,0.56323 1.125,1.02404 2.5,1.02404 1.375,0 2.5,0.5625 2.5,1.25 0,0.6875 0.86727,1.25 1.92726,1.25 1.06,0 3.13481,1.125 4.6107,2.5 1.4759,1.375 3.42113,2.5 4.32274,2.5 0.90161,0 1.6393,0.46745 1.6393,1.03877 0,0.57133 1.53717,1.83695 3.41594,2.8125 1.87876,0.97555 5.05595,3.3206 7.0604,5.21123 2.00444,1.89062 4.13156,3.4375 4.72691,3.4375 1.413,0 22.29675,20.88375 22.29675,22.29675 0,0.59535 1.54688,2.73001 3.4375,4.74369 1.89062,2.01368 4.8018,6.17524 6.46928,9.2479 1.66747,3.07266 3.35497,5.86791 3.75,6.21166 1.47358,1.28232 3.84322,6.28154 3.84322,8.10804 0,1.04057 0.5625,1.89196 1.25,1.89196 0.6875,0 1.25,1.125 1.25,2.5 0,1.375 0.5625,2.5 1.25,2.5 0.6875,0 1.25,1.125 1.25,2.5 0,1.375 0.5625,2.5 1.25,2.5 0.6875,0 1.25,1.6875 1.25,3.75 0,2.0625 0.5625,3.75 1.25,3.75 0.6875,0 1.25,1.22817 1.25,2.72927 0,1.5011 1.06959,5.86048 2.37686,9.6875 3.23264,9.46349 4.35364,19.09234 4.37549,37.58323 0.0213,17.92483 -0.8997,26.05362 -4.24821,37.5 -1.30729,4.46875 -3.09083,10.79687 -3.96341,14.0625 -0.87258,3.26562 -2.02622,5.9375 -2.56363,5.9375 -0.5374,0 -0.9771,1.125 -0.9771,2.5 0,1.375 -0.5625,2.5 -1.25,2.5 -0.6875,0 -1.25,0.9078 -1.25,2.0173 0,2.2291 -5.07852,12.1148 -6.5625,12.7744 -0.51562,0.2291 -0.9375,1.4948 -0.9375,2.8125 0,1.3177 -0.46745,2.3958 -1.03877,2.3958 -0.57133,0 -1.83696,1.5372 -2.8125,3.4159 -0.97555,1.8788 -3.3206,5.056 -5.21123,7.0604 -1.89062,2.0045 -3.4375,4.1308 -3.4375,4.7251 0,1.4109 -23.3877,24.7986 -24.79859,24.7986 -0.59434,0 -2.84643,1.6875 -5.00464,3.75 -2.15821,2.0625 -4.77288,3.75 -5.8104,3.75 -1.0375,0 -1.88637,0.5625 -1.88637,1.25 0,0.6875 -0.73769,1.25 -1.6393,1.25 -0.90161,0 -2.84684,1.125 -4.32274,2.5 -1.47589,1.375 -3.5507,2.5 -4.6107,2.5 -1.05999,0 -1.92726,0.5625 -1.92726,1.25 0,0.6875 -1.125,1.25 -2.5,1.25 -1.375,0 -2.5,0.5625 -2.5,1.25 0,0.6875 -1.125,1.25 -2.5,1.25 -1.375,0 -2.50281,0.4219 -2.50626,0.9375 -0.006,0.8793 -13.15663,5.1883 -24.36874,7.9848 -2.75,0.6859 -6.6875,1.7272 -8.75,2.3141 -2.0625,0.5868 -9.65625,1.4326 -16.875,1.8796 -7.21875,0.4469 -13.96875,0.9916 -15,1.2102 -1.03125,0.2187 -3.28125,-0.047 -5,-0.5897 z"
     style="fill:#b20000" />
</svg>
