<?xml version="1.0" encoding="UTF-8" standalone="no"?>
<svg
   xmlns:dc="http://purl.org/dc/elements/1.1/"
   xmlns:cc="http://creativecommons.org/ns#"
   xmlns:rdf="http://www.w3.org/1999/02/22-rdf-syntax-ns#"
   xmlns:svg="http://www.w3.org/2000/svg"
   xmlns="http://www.w3.org/2000/svg"
   viewBox="0 0 51.25 441.25"
   height="441.25"
   width="51.25"
   version="1.1"
   id="svg2">
 
  <path
     id="path4138"
     d="m 16.265111,435.48525 c -4.47181,-1.78419 -7.4399996,-4.79079 -10.3407996,-10.47456 -2.42295,-4.7475 -2.50801,-6.38647 -1.71917,-33.125 0.45644,-15.47171 1.08401,-29.53664 1.39459,-31.25539 0.31058,-1.71875 1.18974,-16.625 1.95368,-33.125 0.76395,-16.5 1.60044,-32.53125 1.85886,-35.625 0.9269896,-11.09735 2.0415596,-30.86959 2.5014496,-44.375 0.62745,-18.42599 2.66766,-49.76435 4.19098,-64.375 0.68095,-6.53125 1.6,-21.15625 2.04234,-32.5 0.44233,-11.34375 0.95813,-22.875 1.14621,-25.625 0.18808,-2.75 0.71644,-11.46875 1.17414,-19.375 0.73498,-12.695908 1.30131,-22.926479 3.90956,-70.625003 1.07752,-19.705067 2.12649,-33.2776374 2.53994,-32.8641824 0.22054,0.220543 0.74784,6.580206 1.17178,14.1325844 0.42393,7.552379 1.03205,16.544098 1.35136,19.981598 0.31932,3.4375 0.84299,10.46875 1.16372,15.625 0.32074,5.15625 1.13998,17.53125 1.82055,27.5 0.68057,9.96875 1.59948,24.593753 2.04202,32.500003 0.44254,7.90625 0.97845,15.29825 1.19092,16.42666 0.21246,1.12841 0.74924,9.56591 1.19282,18.75 0.44359,9.18409 1.02303,19.22959 1.28765,22.32334 0.4383,5.12426 1.12347,15.17961 2.55523,37.5 0.28666,4.46875 0.84601,13.1875 1.243,19.375 0.39699,6.1875 0.91364,14.34375 1.1481,18.125 0.23445,3.78125 0.75435,11.65625 1.15532,17.5 0.40097,5.84375 1.01418,15.125 1.36269,20.625 2.3077,36.41885 2.67897,41.90265 3.85058,56.875 0.51108,6.53125 1.04055,14.6875 1.1766,18.125 0.13605,3.4375 0.69315,14.125 1.238,23.75 1.18882,21.00115 1.18709,20.84095 0.31336,28.92611 -1.22801,11.36349 -7.89151,21.27994 -16.80076,25.00247 -4.67331,1.95262 -14.58446,2.1089 -19.11472,0.30137 z"
     style="fill:#f1f1f1" />
</svg>
